<?xml version="1.0" encoding="UTF-8"?>
<svg width="80px" height="63px" viewBox="0 0 80 63" version="1.1" xmlns="http://www.w3.org/2000/svg" xmlns:xlink="http://www.w3.org/1999/xlink">
    <!-- Generator: Sketch 52.6 (67491) - http://www.bohemiancoding.com/sketch -->
    <title>logo</title>
    <desc>Created with Sketch.</desc>
    <g id="Page-1" stroke="none" stroke-width="1" fill="none" fill-rule="evenodd">
        <g id="Artboard" transform="translate(-10.000000, -7.000000)" fill="#FFFFFF">
            <g id="logo" transform="translate(10.000000, 7.000000)">
                <path d="M79.9200799,17.8221778 L71.040959,17.8221778 L71.040959,31.1448551 C71.2167832,33.5984016 69.3706294,35.7242757 66.9170829,35.9000999 C64.4635365,36.0759241 62.3376623,34.2297702 62.1618382,31.7762238 C62.1458541,31.5684316 62.1458541,31.3526474 62.1618382,31.1448551 L62.1618382,17.8221778 L53.282645,17.8221778 L53.2827173,31.1448551 C53.2987013,38.4975025 59.2527473,44.4435564 66.6053946,44.4675325 C69.0669331,44.4675325 71.0569431,46.4575425 71.0569431,48.9190809 C71.0569431,51.3806194 69.0669331,53.3706294 66.6053946,53.3706294 C64.1438561,53.3706294 62.1538462,51.3806194 62.1538462,48.9190809 L53.2827173,48.9190809 C53.2587413,56.2797203 59.2047952,62.2577423 66.5654346,62.2817183 C73.9260739,62.3056943 79.9040959,56.3596404 79.9280719,48.999001 C79.9360639,45.6903097 78.7132867,42.4935065 76.4995005,40.03996 C78.6973027,37.6023976 79.9120879,34.4375624 79.9120879,31.1608392 L79.9120879,17.8221778 L79.9200799,17.8221778 Z" id="Path"></path>
                <rect id="Rectangle" x="17.7582418" y="0.143856144" width="8.87912088" height="8.87912088"></rect>
                <path d="M8.87912088,31.1448551 L8.87912088,0.0639360639 L0,0.0639360639 L0,31.1448551 C0,38.4975025 5.96203796,44.4595405 13.3226773,44.4675325 L13.3226773,35.5804196 C10.8691309,35.5724276 8.88711289,33.5904096 8.87912088,31.1448551 Z" id="Path"></path>
                <path d="M26.6373626,31.1448551 L26.6373626,17.8221778 L17.7582418,17.8221778 L17.7582418,31.1448551 C17.7582418,38.4975025 23.7202797,44.4675325 31.0809191,44.4675325 L31.0809191,35.5804196 C28.6353646,35.5724276 26.6453546,33.5904096 26.6373626,31.1448551 Z" id="Path"></path>
                <path d="M44.4035964,31.1448551 L44.4035964,0.0639360639 L35.5164835,0.0639360639 L35.5164835,31.1448551 C35.5164835,38.4975025 41.4785215,44.4675325 48.8391608,44.4675325 L48.8391608,35.5804196 C46.3936064,35.5724276 44.4115884,33.5904096 44.4035964,31.1448551 Z" id="Path"></path>
            </g>
        </g>
    </g>
</svg>
